<?xml version="1.0" encoding="UTF-8"?>
<svg xmlns="http://www.w3.org/2000/svg" id="Layer_1" data-name="Layer 1" viewBox="0 0 24 24">
  <path d="m3,1.5v3.5H0V1.5C0,.672.672,0,1.5,0s1.5.672,1.5,1.5Zm17,9.193c-1.416,1.06-2.991,1.849-4.707,2.317l-1.425.389c-.092.314-.183.654-.275,1.033l-.14.568h-6.154l.339-1.489c.284-1.247.594-2.297.969-3.282.272-1.939,1.273-6.183,4.902-9.113h0c.532-.43,1.077-.794,1.625-1.115H4.662c.217.455.338.964.338,1.5v19.857c0,1.308.941,2.499,2.242,2.63,1.496.15,2.758-1.021,2.758-2.487v-4.5h10v-6.307Zm-8,10.807c0,.924-.28,1.784-.76,2.5h9.26c1.93,0,3.5-1.57,3.5-3.5v-1.5h-12v2.5Zm-1.441-10.772c-.303.769-.526,1.526-.723,2.272h2.072c.144-.505.301-1.01.499-1.514,1.124-3.018,3.967-6.643,7.588-8.647-2.139,2.351-4.615,6.115-5.228,8.241,1.364-.372,2.906-1.044,4.4-2.251C23.304,5.488,24,.07,24,.07c0,0-5.096-.74-9.233,2.601-3.223,2.603-4.015,6.469-4.208,8.057Z"/>
</svg>
